<?xml version="1.0" encoding="UTF-8" standalone="no"?>
<!-- Created with Inkscape (http://www.inkscape.org/) -->

<svg
   xmlns:dc="http://purl.org/dc/elements/1.1/"
   xmlns:cc="http://creativecommons.org/ns#"
   xmlns:rdf="http://www.w3.org/1999/02/22-rdf-syntax-ns#"
   xmlns:svg="http://www.w3.org/2000/svg"
   xmlns="http://www.w3.org/2000/svg"
   xmlns:sodipodi="http://sodipodi.sourceforge.net/DTD/sodipodi-0.dtd"
   xmlns:inkscape="http://www.inkscape.org/namespaces/inkscape"
   width="1024"
   height="1024"
   viewBox="0 0 1024 1024"
   id="svg2"
   version="1.1"
   inkscape:version="0.91 r13725"
   sodipodi:docname="20161129 - Reqer Logo Favicon - Stretched Height.svg">
  <defs
     id="defs4" />
  <sodipodi:namedview
     id="base"
     pagecolor="#ffffff"
     bordercolor="#666666"
     borderopacity="1.0"
     inkscape:pageopacity="0.0"
     inkscape:pageshadow="2"
     inkscape:zoom="0.35098089"
     inkscape:cx="-429.91267"
     inkscape:cy="92.694926"
     inkscape:document-units="px"
     inkscape:current-layer="layer6"
     showgrid="false"
     inkscape:snap-global="false"
     inkscape:window-width="1920"
     inkscape:window-height="1151"
     inkscape:window-x="0"
     inkscape:window-y="1"
     inkscape:window-maximized="1"
     inkscape:snap-intersection-paths="true"
     inkscape:object-paths="true"
     inkscape:object-nodes="true"
     fit-margin-top="0"
     fit-margin-left="0"
     fit-margin-right="0"
     fit-margin-bottom="0"
     inkscape:showpageshadow="false"
     units="px" />
  <metadata
     id="metadata7">
    <rdf:RDF>
      <cc:Work
         rdf:about="">
        <dc:format>image/svg+xml</dc:format>
        <dc:type
           rdf:resource="http://purl.org/dc/dcmitype/StillImage" />
        <dc:title />
      </cc:Work>
    </rdf:RDF>
  </metadata>
  <g
     inkscape:groupmode="layer"
     id="layer6"
     inkscape:label="Master Favicon"
     style="display:inline"
     transform="translate(-318.35715,451.99493)">
    <g
       id="g4155"
       transform="matrix(7.1314438,0,0,7.2905788,-2030.9231,-3511.6425)">
      <g
         id="g4151">
        <path
           style="color:#000000;clip-rule:nonzero;display:inline;overflow:visible;visibility:visible;opacity:1;isolation:auto;mix-blend-mode:normal;color-interpolation:sRGB;color-interpolation-filters:linearRGB;solid-color:#000000;solid-opacity:1;fill:#58585a;fill-opacity:1;fill-rule:nonzero;stroke:none;stroke-width:17.50000381;stroke-linecap:butt;stroke-linejoin:round;stroke-miterlimit:4;stroke-dasharray:none;stroke-dashoffset:0;stroke-opacity:1;color-rendering:auto;image-rendering:auto;shape-rendering:auto;text-rendering:auto;enable-background:accumulate"
           d="M 83.505859,16.177734 C 45.481599,16.177754 14.657153,47.003084 14.658203,85.027344 14.710383,113.86589 32.726251,139.62748 59.806641,149.54297 60.233431,149.69924 60.546823,149.56174 60.595703,149.34961 60.645593,149.13312 60.492026,148.87769 60.041016,148.66992 36.917396,138.01721 22.084242,114.93247 22.039062,89.5 22.038842,53.44674 51.302834,24.21948 87.402344,24.21875 117.06462,24.25555 142.48797,44.137242 150.25195,71.882812 150.25195,71.882812 150.47664,72.675784 150.83789,72.652344 151.19915,72.628914 151.02734,71.742188 151.02734,71.742188 144.81219,39.951188 116.83513,16.196874 83.505859,16.177734 Z M 126.17115,47.381847 C 126.17115,47.381847 124.10541,45.700962 123.75058,46.053897 123.39575,46.406831 125.17505,48.395518 125.17505,48.395518 130.77544,54.916595 133.37992,60.484657 135.70508,68.65625 141.7069,89.84072 134.95588,111.41099 119.91016,126.0918 124.8891,118.52651 127.5503,109.64407 127.56055,100.55664 127.56065,75.049231 107.11179,54.371284 81.886719,54.371094 56.661639,54.371274 36.212791,75.049231 36.212891,100.55664 36.238241,120.44179 48.847722,138.07822 67.513672,144.33594 79.102582,148.56944 94.885523,149.0363 108.62695,144.17969 132.03305,135.9073 151.46794,105.97966 143.34375,75.039062 140.26961,63.339255 135.21175,55.010181 126.17115,47.381847 Z M 81.998047,64.757812 C 100.87051,64.758202 116.16953,80.057237 116.16992,98.929688 116.16953,117.80213 100.87051,133.10118 81.998047,133.10156 63.125617,133.10117 47.826562,117.80213 47.826172,98.929688 47.826552,80.057237 63.125617,64.758202 81.998047,64.757812 Z"
           transform="translate(318.35715,407.00507)"
           id="path4416"
           inkscape:connector-curvature="0"
           sodipodi:nodetypes="ccscsccccccczcccccccsccccccc" />
        <circle
           style="color:#000000;clip-rule:nonzero;display:inline;overflow:visible;visibility:visible;opacity:1;isolation:auto;mix-blend-mode:normal;color-interpolation:sRGB;color-interpolation-filters:linearRGB;solid-color:#000000;solid-opacity:1;fill:#db2229;fill-opacity:1;fill-rule:nonzero;stroke:none;stroke-width:17.50000381;stroke-linecap:butt;stroke-linejoin:round;stroke-miterlimit:4;stroke-dasharray:none;stroke-dashoffset:0;stroke-opacity:1;color-rendering:auto;image-rendering:auto;shape-rendering:auto;text-rendering:auto;enable-background:accumulate"
           id="circle4407"
           cx="397.85315"
           cy="498.31058"
           r="24.021942" />
      </g>
    </g>
  </g>
</svg>
