<?xml version="1.0" encoding="UTF-8" standalone="no"?>
<!-- Created with Inkscape (http://www.inkscape.org/) -->

<svg
   xmlns:dc="http://purl.org/dc/elements/1.1/"
   xmlns:cc="http://creativecommons.org/ns#"
   xmlns:rdf="http://www.w3.org/1999/02/22-rdf-syntax-ns#"
   xmlns:svg="http://www.w3.org/2000/svg"
   xmlns="http://www.w3.org/2000/svg"
   xmlns:sodipodi="http://sodipodi.sourceforge.net/DTD/sodipodi-0.dtd"
   xmlns:inkscape="http://www.inkscape.org/namespaces/inkscape"
   width="584.95502"
   height="133.43248"
   viewBox="0 0 584.955 133.43248"
   id="svg2"
   version="1.1"
   inkscape:version="0.91 r13725"
   sodipodi:docname="logo-full-white.svg"
   inkscape:export-filename="/Users/tl/Design/Reqer-Drover/20161129 - Reqer Logo and Text.png"
   inkscape:export-xdpi="90"
   inkscape:export-ydpi="90">
  <defs
     id="defs4" />
  <sodipodi:namedview
     id="base"
     pagecolor="#ffffff"
     bordercolor="#666666"
     borderopacity="1.0"
     inkscape:pageopacity="0.0"
     inkscape:pageshadow="2"
     inkscape:zoom="1.1705977"
     inkscape:cx="205.34007"
     inkscape:cy="66.777785"
     inkscape:document-units="px"
     inkscape:current-layer="text4162"
     showgrid="false"
     inkscape:snap-global="false"
     inkscape:window-width="1920"
     inkscape:window-height="1151"
     inkscape:window-x="0"
     inkscape:window-y="1"
     inkscape:window-maximized="1"
     inkscape:snap-intersection-paths="true"
     inkscape:object-paths="true"
     inkscape:object-nodes="true"
     fit-margin-top="0"
     fit-margin-left="0"
     fit-margin-right="0"
     fit-margin-bottom="0"
     inkscape:showpageshadow="false"
     units="px" />
  <metadata
     id="metadata7">
    <rdf:RDF>
      <cc:Work
         rdf:about="">
        <dc:format>image/svg+xml</dc:format>
        <dc:type
           rdf:resource="http://purl.org/dc/dcmitype/StillImage" />
        <dc:title></dc:title>
      </cc:Work>
    </rdf:RDF>
  </metadata>
  <g
     inkscape:groupmode="layer"
     id="layer6"
     inkscape:label="Final Master"
     style="display:inline"
     transform="translate(-333.01535,-423.1828)">
    <path
       style="color:#000000;clip-rule:nonzero;display:inline;overflow:visible;visibility:visible;opacity:1;isolation:auto;mix-blend-mode:normal;color-interpolation:sRGB;color-interpolation-filters:linearRGB;solid-color:#000000;solid-opacity:1;fill:#ffffff;fill-opacity:1;fill-rule:nonzero;stroke:none;stroke-width:17.50000381;stroke-linecap:butt;stroke-linejoin:round;stroke-miterlimit:4;stroke-dasharray:none;stroke-dashoffset:0;stroke-opacity:1;color-rendering:auto;image-rendering:auto;shape-rendering:auto;text-rendering:auto;enable-background:accumulate"
       d="M 83.505859,16.177734 C 45.481599,16.177754 14.657153,47.003084 14.658203,85.027344 14.710383,113.86589 32.726251,139.62748 59.806641,149.54297 60.233431,149.69924 60.546823,149.56174 60.595703,149.34961 60.645593,149.13312 60.492026,148.87769 60.041016,148.66992 36.917396,138.01721 22.084242,114.93247 22.039062,89.5 22.038842,53.44674 51.302834,24.21948 87.402344,24.21875 117.06462,24.25555 142.48797,44.137242 150.25195,71.882812 150.25195,71.882812 150.47664,72.675784 150.83789,72.652344 151.19915,72.628914 151.02734,71.742188 151.02734,71.742188 144.81219,39.951188 116.83513,16.196874 83.505859,16.177734 Z M 126.17115,47.381847 C 126.17115,47.381847 124.10541,45.700962 123.75058,46.053897 123.39575,46.406831 125.17505,48.395518 125.17505,48.395518 130.77544,54.916595 133.37992,60.484657 135.70508,68.65625 141.7069,89.84072 134.95588,111.41099 119.91016,126.0918 124.8891,118.52651 127.5503,109.64407 127.56055,100.55664 127.56065,75.049231 107.11179,54.371284 81.886719,54.371094 56.661639,54.371274 36.212791,75.049231 36.212891,100.55664 36.238241,120.44179 48.847722,138.07822 67.513672,144.33594 79.102582,148.56944 94.885523,149.0363 108.62695,144.17969 132.03305,135.9073 151.46794,105.97966 143.34375,75.039062 140.26961,63.339255 135.21175,55.010181 126.17115,47.381847 Z M 81.998047,64.757812 C 100.87051,64.758202 116.16953,80.057237 116.16992,98.929688 116.16953,117.80213 100.87051,133.10118 81.998047,133.10156 63.125617,133.10117 47.826562,117.80213 47.826172,98.929688 47.826552,80.057237 63.125617,64.758202 81.998047,64.757812 Z"
       id="path4416"
       inkscape:connector-curvature="0"
       sodipodi:nodetypes="ccscsccccccczcccccccsccccccc"
       transform="translate(318.35715,407.00507)" />
    <circle
       style="color:#000000;clip-rule:nonzero;display:inline;overflow:visible;visibility:visible;opacity:1;isolation:auto;mix-blend-mode:normal;color-interpolation:sRGB;color-interpolation-filters:linearRGB;solid-color:#000000;solid-opacity:1;fill:#db2229;fill-opacity:1;fill-rule:nonzero;stroke:none;stroke-width:17.50000381;stroke-linecap:butt;stroke-linejoin:round;stroke-miterlimit:4;stroke-dasharray:none;stroke-dashoffset:0;stroke-opacity:1;color-rendering:auto;image-rendering:auto;shape-rendering:auto;text-rendering:auto;enable-background:accumulate"
       id="circle4407"
       cx="397.85315"
       cy="498.31058"
       r="24.021942" />
    <g
       style="font-style:normal;font-weight:normal;font-size:87.84788513px;line-height:125%;font-family:sans-serif;text-align:center;letter-spacing:0px;word-spacing:0px;text-anchor:middle;fill:#ffffff;fill-opacity:1;stroke:none;stroke-width:1px;stroke-linecap:butt;stroke-linejoin:miter;stroke-opacity:1"
       id="text4162">
      <path
         d="M 572.58403,529.97972 544.03346,529.97972 524.88263,514.07926 497.82548,514.07926 497.82548,529.97972 478.14755,529.97972 478.14755,497.6517 532.78894,497.6517 Q 537.79626,497.6517 541.04664,496.15829 545.17549,494.22563 545.17549,490.44818 545.17549,483.06895 532.78894,483.06895 L 478.14755,483.06895 490.97334,466.6414 530.94413,466.6414 Q 545.79042,466.6414 555.01445,472.26366 565.3805,478.67656 565.3805,490.53602 565.3805,497.21246 561.1638,502.65903 557.03495,508.01775 549.65573,510.91673 L 572.58403,529.97972 Z"
         style="font-style:normal;font-variant:normal;font-weight:normal;font-stretch:normal;font-family:Ethnocentric-Reqer;-inkscape-font-specification:Ethnocentric-Reqer;fill:#ffffff;fill-opacity:1"
         id="path4138"
         inkscape:connector-curvature="0" />
      <path
         d="M 645.0503,513.64002 632.4002,529.97972 576.2654,529.97972 576.2654,466.6414 645.0503,466.6414 632.4002,483.06895 595.94333,483.06895 595.94333,489.74539 641.97562,489.74539 629.32553,506.0851 595.94333,506.0851 595.94333,513.64002 645.0503,513.64002 Z"
         style="font-style:normal;font-variant:normal;font-weight:normal;font-stretch:normal;font-family:Ethnocentric-Reqer;-inkscape-font-specification:Ethnocentric-Reqer;fill:#ffffff;fill-opacity:1"
         id="path4140"
         inkscape:connector-curvature="0" />
      <path
         d="M 748.34019,529.97972 719.70178,529.97972 717.59343,528.31061 Q 711.53193,529.97972 704.5041,529.97972 L 685.44111,529.97972 Q 668.83786,529.97972 657.94472,520.84354 647.13943,511.61952 647.13943,497.73955 647.13943,483.85958 657.85687,475.25049 668.66216,466.6414 685.44111,466.6414 L 704.5041,466.6414 Q 721.28304,466.6414 732.00049,475.25049 742.71793,483.85958 742.71793,497.73955 742.71793,509.51117 734.37238,518.47165 L 748.34019,529.97972 Z M 704.5041,483.06895 685.44111,483.06895 Q 677.27125,483.06895 672.00038,487.46135 666.72951,491.76589 666.72951,498.53018 666.72951,505.29447 672.00038,509.51117 677.27125,513.64002 685.44111,513.64002 L 700.02386,513.64002 691.32692,506.34864 719.78963,506.34864 720.40457,506.87573 Q 723.12785,503.18612 723.12785,498.53018 723.12785,491.67805 717.85698,487.3735 712.67395,483.06895 704.5041,483.06895 Z"
         style="font-style:normal;font-variant:normal;font-weight:normal;font-stretch:normal;font-family:Ethnocentric-Reqer;-inkscape-font-specification:Ethnocentric-Reqer;fill:#ffffff;fill-opacity:1"
         id="path4142"
         inkscape:connector-curvature="0" />
      <path
         d="M 820.91764,513.64002 808.26754,529.97972 752.13274,529.97972 752.13274,466.6414 820.91764,466.6414 808.26754,483.06895 771.81067,483.06895 771.81067,489.74539 817.84296,489.74539 805.19287,506.0851 771.81067,506.0851 771.81067,513.64002 820.91764,513.64002 Z"
         style="font-style:normal;font-variant:normal;font-weight:normal;font-stretch:normal;font-family:Ethnocentric-Reqer;-inkscape-font-specification:Ethnocentric-Reqer;fill:#ffffff;fill-opacity:1"
         id="path4144"
         inkscape:connector-curvature="0" />
      <path
         d="M 917.97035,529.97972 889.41979,529.97972 870.26895,514.07926 843.2118,514.07926 843.2118,529.97972 823.53387,529.97972 823.53387,497.6517 878.17526,497.6517 Q 883.18259,497.6517 886.43296,496.15829 890.56181,494.22563 890.56181,490.44818 890.56181,483.06895 878.17526,483.06895 L 823.53387,483.06895 836.35966,466.6414 876.33045,466.6414 Q 891.17674,466.6414 900.40077,472.26366 910.76682,478.67656 910.76682,490.53602 910.76682,497.21246 906.55012,502.65903 902.42127,508.01775 895.04205,510.91673 L 917.97035,529.97972 Z"
         style="font-style:normal;font-variant:normal;font-weight:normal;font-stretch:normal;font-family:Ethnocentric-Reqer;-inkscape-font-specification:Ethnocentric-Reqer;fill:#ffffff;fill-opacity:1"
         id="path4146"
         inkscape:connector-curvature="0" />
    </g>
  </g>
</svg>
